<?xml version="1.0" standalone="no"?>
<!DOCTYPE svg PUBLIC "-//W3C//DTD SVG 20010904//EN"
 "http://www.w3.org/TR/2001/REC-SVG-20010904/DTD/svg10.dtd">
<svg version="1.0" xmlns="http://www.w3.org/2000/svg"
 width="2048.000000pt" height="2048.000000pt" viewBox="0 0 2048.000000 2048.000000"
 preserveAspectRatio="xMidYMid meet">
<metadata>
Created by potrace 1.11, written by Peter Selinger 2001-2013
</metadata>
<g transform="translate(0.000000,2048.000000) scale(0.100000,-0.100000)"
fill="#000000" stroke="none">
<path d="M0 10240 l0 -10240 10240 0 10240 0 0 10240 0 10240 -10240 0 -10240
0 0 -10240z m8796 5585 l251 -585 -67 0 -66 0 -64 155 -64 155 -297 0 c-225 0
-299 -3 -306 -12 -5 -7 -36 -77 -68 -155 l-58 -143 -64 0 c-48 0 -64 3 -60 13
5 14 170 395 359 832 72 165 132 306 135 313 3 7 26 12 62 12 l56 0 251 -585z
m1294 55 l0 -530 273 -2 272 -3 3 -52 3 -53 -335 0 -335 0 -1 578 c0 318 3
581 6 585 4 4 31 7 61 7 l53 0 0 -530z m1590 -55 l0 -585 -60 0 -60 0 0 578
c0 318 3 582 7 585 3 4 30 7 60 7 l53 0 0 -585z m1906 -3512 c15 -6 29 -101
20 -138 l-6 -25 -1580 0 c-869 0 -1580 -2 -1580 -5 0 -6 790 -1594 2083 -4186
1099 -2205 1103 -2213 1082 -2278 -6 -20 -14 -20 -668 -21 -364 -1 -691 -3
-727 -5 -36 -2 -1077 -6 -2315 -9 -1237 -3 -2394 -9 -2570 -12 -219 -4 -329
-3 -347 5 l-28 11 0 106 0 107 1574 3143 1574 3142 -211 6 c-117 4 -219 6
-227 5 -8 -1 -621 -1 -1362 -1 l-1348 2 0 87 0 86 3311 -7 c1821 -4 3317 -10
3325 -13z"/>
<path d="M8357 15968 l-125 -303 123 -3 c68 -1 182 -1 254 0 l130 3 -125 300
c-69 164 -126 300 -128 302 -1 2 -59 -133 -129 -299z"/>
<path d="M9481 10530 l-712 -1420 722 0 721 0 -7 1418 c-4 779 -8 1418 -10
1420 -1 1 -323 -637 -714 -1418z"/>
<path d="M10373 11233 c4 -351 7 -972 7 -1380 l0 -743 685 0 c377 0 685 2 685
4 0 12 -1370 2756 -1376 2756 -4 0 -4 -287 -1 -637z"/>
<path d="M8676 8918 c-8 -13 -361 -716 -784 -1563 l-770 -1540 857 -2 c471 -2
1168 1 1549 5 l693 7 -1 1120 c-1 616 -3 1163 -6 1215 -2 52 -4 249 -4 438 l0
342 -760 0 -760 0 -14 -22z"/>
<path d="M10387 8933 c-6 -12 10 -3103 16 -3109 3 -3 676 -2 1495 3 l1491 8
-774 1553 -774 1552 -725 0 c-399 0 -727 -3 -729 -7z"/>
</g>
</svg>
