<?xml version="1.0" standalone="no"?>
<!DOCTYPE svg PUBLIC "-//W3C//DTD SVG 20010904//EN"
 "http://www.w3.org/TR/2001/REC-SVG-20010904/DTD/svg10.dtd">
<svg version="1.0" xmlns="http://www.w3.org/2000/svg"
 width="260.000000pt" height="260.000000pt" viewBox="0 0 260.000000 260.000000"
 preserveAspectRatio="xMidYMid meet">
<metadata>
Created by potrace 1.14, written by Peter Selinger 2001-2017
</metadata>
<g transform="translate(0.000000,260.000000) scale(0.100000,-0.100000)"
fill="#000000" stroke="none">
<path d="M0 1300 l0 -1300 1300 0 1300 0 0 1300 0 1300 -1300 0 -1300 0 0
-1300z m1445 925 c128 -34 239 -127 298 -252 31 -65 32 -74 32 -189 0 -119 0
-121 -38 -196 -88 -180 -281 -281 -476 -251 -164 26 -301 138 -358 293 -71
193 -4 411 161 525 114 78 251 103 381 70z m-416 -996 c80 -77 164 -112 277
-117 134 -6 225 27 319 117 l43 41 90 -45 c186 -96 333 -242 422 -420 58 -116
78 -192 87 -327 7 -119 21 -109 -202 -137 -508 -63 -870 -70 -1315 -25 -164
16 -419 50 -425 56 -8 8 17 190 35 257 74 267 264 493 521 616 41 19 78 35 84
35 6 0 35 -23 64 -51z"/>
</g>
</svg>
